<?xml version="1.0" encoding="utf-8"?>
<!-- Generator: Adobe Illustrator 16.0.0, SVG Export Plug-In . SVG Version: 6.00 Build 0)  -->
<!DOCTYPE svg PUBLIC "-//W3C//DTD SVG 1.1//EN" "http://www.w3.org/Graphics/SVG/1.1/DTD/svg11.dtd">
<svg version="1.1" id="Objects" xmlns="http://www.w3.org/2000/svg" xmlns:xlink="http://www.w3.org/1999/xlink" x="0px" y="0px"
	 width="350px" height="354px" viewBox="0 0 350 354" enable-background="new 0 0 350 354" xml:space="preserve">
<g>
	<ellipse id="XMLID_235_" fill="#EAEAEA" cx="176.112" cy="291.643" rx="82.146" ry="13.031"/>
	<ellipse fill="#FFFFFF" cx="175" cy="177" rx="175" ry="177"/>
	<ellipse id="XMLID_234_" fill="#28829E" cx="176.112" cy="195.67" rx="80.584" ry="85.632"/>
	<g id="XMLID_2_">
		<g id="XMLID_31_">
			<path id="XMLID_32_" fill="#005468" d="M233.45,144.959c-15.175,14.508-24.625,34.941-24.625,57.582
				c0,29.363,15.899,55.015,39.564,68.841c15.175-14.509,24.625-34.942,24.625-57.582
				C273.015,184.436,257.115,158.785,233.45,144.959z"/>
			<g id="XMLID_33_">
				<path id="XMLID_34_" fill="#001C21" d="M223.131,240.556l6.4-7.888l6.545,8.067l6.504-8.016l6.391,7.875l6.398-7.888l6.65,8.195
					l6.898-8.502l1.459,1.797c0.178-0.673,0.346-1.35,0.507-2.03l-1.966-2.423l-6.898,8.502l-6.65-8.195l-6.398,7.889l-6.391-7.875
					l-6.504,8.016l-6.545-8.067l-6.4,7.888l-6.357-7.836l-2.063,2.543c0.239,0.586,0.483,1.168,0.737,1.747l1.326-1.635
					L223.131,240.556z"/>
				<path id="XMLID_35_" fill="#001C21" d="M229.531,243.271l6.545,8.066l6.504-8.016l6.391,7.875l6.398-7.889l6.65,8.195
					l3.889-4.793c0.801-1.762,1.539-3.557,2.213-5.383l-6.102,7.521l-6.65-8.195l-6.398,7.888l-6.391-7.875l-6.504,8.016
					l-6.545-8.066l-6.236,7.687c0.332,0.474,0.668,0.944,1.011,1.409L229.531,243.271z"/>
				<path id="XMLID_36_" fill="#001C21" d="M223.131,229.953l6.4-7.888l6.545,8.067l6.504-8.016l6.391,7.875l6.398-7.889l6.65,8.195
					l6.898-8.502l3.201,3.946c0.113-0.755,0.216-1.515,0.309-2.276l-3.51-4.326l-6.898,8.503l-6.65-8.194l-6.398,7.887l-6.391-7.874
					l-6.504,8.016l-6.545-8.067l-6.4,7.887l-6.357-7.836l-4.663,5.748c0.19,0.644,0.389,1.284,0.596,1.921l4.067-5.013
					L223.131,229.953z"/>
				<path id="XMLID_37_" fill="#001C21" d="M255.369,261.858l-6.398,7.888l-6.391-7.875l-2.92,3.6
					c0.44,0.343,0.889,0.676,1.336,1.009l1.584-1.952l5.322,6.559c0.163,0.098,0.323,0.199,0.487,0.296
					c2.786-2.664,5.377-5.529,7.754-8.569L255.369,261.858z"/>
				<path id="XMLID_38_" fill="#001C21" d="M248.971,261.8l6.398-7.889l3.828,4.718c0.329-0.482,0.653-0.968,0.973-1.457
					l-4.801-5.915l-6.398,7.887l-6.391-7.874l-6.504,8.016l-6.545-8.066l-2.05,2.525c0.364,0.435,0.73,0.867,1.104,1.294
					l0.945-1.165l6.545,8.066l6.504-8.015L248.971,261.8z"/>
				<path id="XMLID_39_" fill="#001C21" d="M230.021,148.451l6.055,7.464l4.857-5.987c-0.447-0.334-0.895-0.667-1.35-0.992
					l-3.508,4.323l-4.896-6.034C230.789,147.63,230.403,148.039,230.021,148.451z"/>
				<path id="XMLID_40_" fill="#001C21" d="M223.131,166.338l6.4-7.888l6.545,8.066l6.504-8.015l6.391,7.875l4.197-5.176
					c-0.373-0.423-0.756-0.837-1.138-1.252l-3.06,3.771l-6.391-7.874l-6.504,8.015l-6.545-8.066l-6.4,7.887l-2.427-2.991
					c-0.312,0.504-0.619,1.011-0.92,1.522L223.131,166.338z"/>
				<path id="XMLID_41_" fill="#001C21" d="M223.131,176.94l6.4-7.888l6.545,8.067l6.504-8.017l6.391,7.875l6.398-7.888l6.65,8.195
					l1.295-1.597c-0.287-0.527-0.585-1.046-0.885-1.565l-0.41,0.507l-6.65-8.195l-6.398,7.888l-6.391-7.875l-6.504,8.017
					l-6.545-8.068l-6.4,7.889l-5.936-7.316c-0.625,1.252-1.221,2.521-1.781,3.811l1.359-1.676L223.131,176.94z"/>
				<path id="XMLID_42_" fill="#001C21" d="M216.773,211.514l6.357,7.838l6.4-7.889l6.545,8.067l6.504-8.017l6.391,7.875
					l6.398-7.887l6.65,8.194l6.898-8.502l4.059,5.001c0.023-0.795,0.038-1.594,0.038-2.396c0-0.072-0.003-0.144-0.003-0.216
					l-4.094-5.045l-6.898,8.502l-6.65-8.195l-6.398,7.889l-6.391-7.876l-6.504,8.017l-6.545-8.068l-6.4,7.889l-6.357-7.837
					l-6.068,7.478l-0.857-1.057c0.186,1.147,0.387,2.289,0.62,3.42l0.237,0.293L216.773,211.514z"/>
				<path id="XMLID_43_" fill="#001C21" d="M216.773,200.912l6.357,7.836l6.4-7.887l6.545,8.066l6.504-8.017l6.391,7.876
					l6.398-7.889l6.65,8.195l6.898-8.502l3.613,4.453c-0.117-1.063-0.257-2.117-0.414-3.166l-3.199-3.943l-6.898,8.503l-6.65-8.194
					l-6.398,7.887l-6.391-7.875l-6.504,8.016l-6.545-8.066l-6.4,7.887l-6.357-7.836l-6.068,7.479l-1.865-2.299
					c0.011,0.92,0.037,1.838,0.078,2.75l1.787,2.204L216.773,200.912z"/>
				<path id="XMLID_44_" fill="#001C21" d="M216.773,190.309l6.357,7.838l6.4-7.889l6.545,8.066l6.504-8.016l6.391,7.875
					l6.398-7.887l6.65,8.195l6.898-8.503l0.747,0.921c-0.325-1.084-0.665-2.16-1.034-3.225l-6.611,8.15l-6.65-8.194l-6.398,7.887
					l-6.391-7.874l-6.504,8.016l-6.545-8.066l-6.4,7.887l-6.357-7.836l-6.068,7.478l-1.361-1.678
					c-0.089,0.785-0.168,1.573-0.234,2.365l1.596,1.967L216.773,190.309z"/>
				<path id="XMLID_45_" fill="#001C21" d="M216.773,179.707l6.357,7.836l6.4-7.888l6.545,8.067l6.504-8.016l6.391,7.875
					l6.398-7.889l6.65,8.195l4.521-5.572c-0.248-0.575-0.5-1.148-0.761-1.717l-3.76,4.633l-6.65-8.194l-6.398,7.888l-6.391-7.875
					l-6.504,8.016L229.531,177l-6.4,7.888l-6.357-7.837l-5.832,7.188c-0.199,0.846-0.381,1.699-0.553,2.556l0.316,0.391
					L216.773,179.707z"/>
			</g>
		</g>
		<g id="XMLID_46_">
			<path id="XMLID_229_" fill="#005468" d="M118.773,144.959c15.174,14.508,24.625,34.941,24.625,57.582
				c0,29.363-15.899,55.015-39.564,68.841C88.66,256.873,79.209,236.439,79.209,213.8
				C79.209,184.436,95.108,158.785,118.773,144.959z"/>
			<g id="XMLID_47_">
				<path id="XMLID_228_" fill="#001C21" d="M129.092,240.556l-6.399-7.888l-6.545,8.067l-6.504-8.016l-6.389,7.875l-6.4-7.888
					l-6.649,8.195l-6.898-8.502l-1.459,1.797c-0.178-0.673-0.347-1.35-0.507-2.03l1.966-2.423l6.898,8.502l6.649-8.195l6.4,7.889
					l6.389-7.875l6.504,8.016l6.545-8.067l6.399,7.888l6.358-7.836l2.063,2.543c-0.239,0.586-0.484,1.168-0.737,1.747l-1.326-1.635
					L129.092,240.556z"/>
				<path id="XMLID_227_" fill="#001C21" d="M122.693,243.271l-6.545,8.066l-6.504-8.016l-6.389,7.875l-6.4-7.889l-6.649,8.195
					l-3.89-4.793c-0.801-1.762-1.539-3.557-2.212-5.383l6.102,7.521l6.649-8.195l6.4,7.888l6.389-7.875l6.504,8.016l6.545-8.066
					l6.236,7.687c-0.333,0.474-0.668,0.944-1.011,1.409L122.693,243.271z"/>
				<path id="XMLID_226_" fill="#001C21" d="M129.092,229.953l-6.399-7.888l-6.545,8.067l-6.504-8.016l-6.389,7.875l-6.4-7.889
					l-6.649,8.195l-6.898-8.502l-3.202,3.946c-0.113-0.755-0.215-1.515-0.308-2.276l3.51-4.326l6.898,8.503l6.649-8.194l6.4,7.887
					l6.389-7.874l6.504,8.016l6.545-8.067l6.399,7.887l6.358-7.836l4.663,5.748c-0.191,0.644-0.389,1.284-0.596,1.921l-4.067-5.013
					L129.092,229.953z"/>
				<path id="XMLID_225_" fill="#001C21" d="M96.854,261.858l6.4,7.888l6.389-7.875l2.921,3.6c-0.441,0.343-0.889,0.676-1.336,1.009
					l-1.584-1.952l-5.321,6.559c-0.164,0.098-0.324,0.199-0.488,0.296c-2.786-2.664-5.377-5.529-7.754-8.569L96.854,261.858z"/>
				<path id="XMLID_222_" fill="#001C21" d="M103.254,261.8l-6.4-7.889l-3.828,4.718c-0.329-0.482-0.653-0.968-0.972-1.457
					l4.799-5.915l6.4,7.887l6.389-7.874l6.504,8.016l6.545-8.066l2.05,2.525c-0.365,0.435-0.731,0.867-1.105,1.294l-0.945-1.165
					l-6.545,8.066l-6.504-8.015L103.254,261.8z"/>
				<path id="XMLID_221_" fill="#001C21" d="M122.202,148.451l-6.055,7.464l-4.858-5.987c0.447-0.334,0.895-0.667,1.35-0.992
					l3.508,4.323l4.896-6.034C121.434,147.63,121.82,148.039,122.202,148.451z"/>
				<path id="XMLID_220_" fill="#001C21" d="M129.092,166.338l-6.399-7.888l-6.545,8.066l-6.504-8.015l-6.389,7.875l-4.198-5.176
					c0.373-0.423,0.756-0.837,1.138-1.252l3.061,3.771l6.389-7.874l6.504,8.015l6.545-8.066l6.399,7.887l2.427-2.991
					c0.312,0.504,0.62,1.011,0.92,1.522L129.092,166.338z"/>
				<path id="XMLID_217_" fill="#001C21" d="M129.092,176.94l-6.399-7.888l-6.545,8.067l-6.504-8.017l-6.389,7.875l-6.4-7.888
					l-6.649,8.195l-1.296-1.597c0.287-0.527,0.586-1.046,0.885-1.565l0.411,0.507l6.649-8.195l6.4,7.888l6.389-7.875l6.504,8.017
					l6.545-8.068l6.399,7.889l5.936-7.316c0.626,1.252,1.221,2.521,1.782,3.811l-1.359-1.676L129.092,176.94z"/>
				<path id="XMLID_214_" fill="#001C21" d="M135.451,211.514l-6.358,7.838l-6.399-7.889l-6.545,8.067l-6.504-8.017l-6.389,7.875
					l-6.4-7.887l-6.649,8.194l-6.898-8.502l-4.059,5.001c-0.023-0.795-0.039-1.594-0.039-2.396c0-0.072,0.003-0.144,0.003-0.216
					l4.094-5.045l6.898,8.502l6.649-8.195l6.4,7.889l6.389-7.876l6.504,8.017l6.545-8.068l6.399,7.889l6.358-7.837l6.067,7.478
					l0.857-1.057c-0.185,1.147-0.386,2.289-0.62,3.42l-0.238,0.293L135.451,211.514z"/>
				<path id="XMLID_213_" fill="#001C21" d="M135.451,200.912l-6.358,7.836l-6.399-7.887l-6.545,8.066l-6.504-8.017l-6.389,7.876
					l-6.4-7.889l-6.649,8.195l-6.898-8.502l-3.613,4.453c0.116-1.063,0.256-2.117,0.414-3.166l3.2-3.943l6.898,8.503l6.649-8.194
					l6.4,7.887l6.389-7.875l6.504,8.016l6.545-8.066l6.399,7.887l6.358-7.836l6.067,7.479l1.865-2.299
					c-0.01,0.92-0.036,1.838-0.077,2.75l-1.788,2.204L135.451,200.912z"/>
				<path id="XMLID_210_" fill="#001C21" d="M135.451,190.309l-6.358,7.838l-6.399-7.889l-6.545,8.066l-6.504-8.016l-6.389,7.875
					l-6.4-7.887l-6.649,8.195l-6.898-8.503l-0.747,0.921c0.325-1.084,0.664-2.16,1.033-3.225l6.612,8.15l6.649-8.194l6.4,7.887
					l6.389-7.874l6.504,8.016l6.545-8.066l6.399,7.887l6.358-7.836l6.067,7.478l1.361-1.678c0.089,0.785,0.168,1.573,0.235,2.365
					l-1.596,1.967L135.451,190.309z"/>
				<path id="XMLID_209_" fill="#001C21" d="M135.451,179.707l-6.358,7.836l-6.399-7.888l-6.545,8.067l-6.504-8.016l-6.389,7.875
					l-6.4-7.889l-6.649,8.195l-4.521-5.572c0.248-0.575,0.5-1.148,0.761-1.717l3.76,4.633l6.649-8.194l6.4,7.888l6.389-7.875
					l6.504,8.016l6.545-8.066l6.399,7.888l6.358-7.837l5.832,7.188c0.199,0.846,0.381,1.699,0.553,2.556l-0.317,0.391
					L135.451,179.707z"/>
			</g>
		</g>
	</g>
	<g id="XMLID_1_">
		<g>
			<g id="XMLID_180_">
				<g id="XMLID_184_">
					<path id="XMLID_186_" fill="#FFFFFF" d="M177.224,74.907c-0.292-10.533-16.934-10.076-24.094-10.209
						c-6.872-0.127-13.75,0.144-20.62-0.119c-6.124-0.234-12.005-2.136-15.718-7.279c-1.215-1.683-2.141-3.571-2.756-5.551
						c-0.191-0.612-0.344-1.231-0.483-1.857c-0.05-0.226-0.168-1.057-0.115-0.595c-0.159-1.372-2.215-1.919-2.595-0.351
						c-1.954,8.074-2.247,18.964,3.562,25.555c4.879,5.536,12.982,5.353,19.765,5.403c8.879,0.065,17.767-0.663,26.585-1.648
						c5.178-0.578,10.357-1.233,15.5-2.075c0.639-0.104,0.929-0.541,0.952-1.024C177.217,75.077,177.226,74.996,177.224,74.907z"/>
					<path id="XMLID_185_" fill="#FFFFFF" d="M170.364,85.211c-0.292-10.532-16.934-10.076-24.095-10.209
						c-6.872-0.127-13.75,0.144-20.619-0.119c-6.124-0.234-12.005-2.136-15.718-7.279c-1.215-1.683-2.141-3.571-2.756-5.551
						c-0.191-0.612-0.344-1.231-0.483-1.857c-0.05-0.226-0.168-1.057-0.115-0.595c-0.159-1.372-2.215-1.919-2.595-0.351
						c-1.954,8.074-2.246,18.964,3.562,25.555c4.879,5.536,12.982,5.353,19.765,5.403c8.879,0.065,17.767-0.663,26.585-1.648
						c5.178-0.578,10.357-1.233,15.5-2.074c0.639-0.105,0.928-0.541,0.952-1.025C170.357,85.381,170.366,85.3,170.364,85.211z"/>
				</g>
				<g id="XMLID_181_">
					<path id="XMLID_183_" fill="#FFFFFF" d="M175,74.907c0.292-10.533,16.934-10.076,24.094-10.209
						c6.873-0.127,13.75,0.144,20.62-0.119c6.124-0.234,12.005-2.136,15.718-7.279c1.215-1.683,2.141-3.571,2.757-5.551
						c0.19-0.612,0.345-1.231,0.483-1.857c0.051-0.226,0.168-1.057,0.115-0.595c0.158-1.372,2.215-1.919,2.594-0.351
						c1.955,8.074,2.247,18.964-3.561,25.555c-4.88,5.536-12.982,5.353-19.766,5.403c-8.879,0.065-17.767-0.663-26.585-1.648
						c-5.178-0.578-10.357-1.233-15.5-2.075c-0.639-0.104-0.929-0.541-0.952-1.024C175.006,75.077,174.998,74.996,175,74.907z"/>
					<path id="XMLID_182_" fill="#FFFFFF" d="M181.86,85.211c0.292-10.532,16.933-10.076,24.095-10.209
						c6.871-0.127,13.75,0.144,20.619-0.119c6.123-0.234,12.005-2.136,15.718-7.279c1.215-1.683,2.141-3.571,2.757-5.551
						c0.19-0.612,0.344-1.231,0.482-1.857c0.051-0.226,0.169-1.057,0.115-0.595c0.159-1.372,2.215-1.919,2.596-0.351
						c1.953,8.074,2.246,18.964-3.563,25.555c-4.879,5.536-12.982,5.353-19.765,5.403c-8.88,0.065-17.767-0.663-26.585-1.648
						c-5.178-0.578-10.357-1.233-15.5-2.074c-0.639-0.105-0.928-0.541-0.952-1.025C181.866,85.381,181.857,85.3,181.86,85.211z"/>
				</g>
			</g>
			<path id="XMLID_179_" fill="#FFFFFF" d="M270.198,139.203c-0.303-26.823-14.687-49.521-34.231-57.368l0,0
				c-10.841-6.252-64.625-22.529-119.71,0l0,0c-19.545,7.848-33.929,30.545-34.231,57.367c-0.387,34.193,21.812,62.062,49.25,62.062
				c4.778,0,9.397-0.846,13.765-2.423c20.295-7.329,41.849-7.329,62.144,0c4.368,1.577,8.986,2.423,13.766,2.423
				C248.387,201.264,270.584,173.395,270.198,139.203z"/>
			<g id="XMLID_169_">
				<g id="XMLID_172_">
					<g id="XMLID_176_">
						<circle id="XMLID_178_" fill="#FFFFFF" cx="137.305" cy="145.246" r="42.631"/>
						<circle id="XMLID_177_" fill="#FFFFFF" cx="137.304" cy="145.246" r="19.044"/>
					</g>
					<g id="XMLID_173_">
						<circle id="XMLID_175_" fill="#FFFFFF" cx="214.919" cy="145.246" r="42.631"/>
						<circle id="XMLID_174_" fill="#FFFFFF" cx="214.919" cy="145.246" r="19.044"/>
					</g>
				</g>
				<circle id="XMLID_171_" fill="#FFFFFF" cx="145.107" cy="135.773" r="4.652"/>
				<circle id="XMLID_170_" fill="#FFFFFF" cx="223.222" cy="135.773" r="4.651"/>
			</g>
			<path id="XMLID_168_" fill="#FFFFFF" d="M158.625,162.758c-0.111,0.159-0.216,0.311-0.314,0.455
				c-0.659,0.969-0.771,2.445-0.28,3.598l16.288,38.277c0.815,1.916,2.773,1.916,3.589-0.001l16.287-38.276
				c0.49-1.152,0.379-2.629-0.279-3.598c-0.1-0.145-0.203-0.296-0.314-0.455C183.988,149.008,168.235,149.008,158.625,162.758z"/>
		</g>
		<g>
			<g id="XMLID_161_">
				<g id="XMLID_165_">
					<path id="XMLID_167_" fill="#FFC40C" d="M177.224,74.907c-0.292-10.533-16.934-10.076-24.094-10.209
						c-6.872-0.127-13.75,0.144-20.62-0.119c-6.124-0.234-12.005-2.136-15.718-7.279c-1.215-1.683-2.141-3.571-2.756-5.551
						c-0.191-0.612-0.344-1.231-0.483-1.857c-0.05-0.226-0.168-1.057-0.115-0.595c-0.159-1.372-2.215-1.919-2.595-0.351
						c-1.954,8.074-2.247,18.964,3.562,25.555c4.879,5.536,12.982,5.353,19.765,5.403c8.879,0.065,17.767-0.663,26.585-1.648
						c5.178-0.578,10.357-1.233,15.5-2.075c0.639-0.104,0.929-0.541,0.952-1.024C177.217,75.077,177.226,74.996,177.224,74.907z"/>
					<path id="XMLID_166_" fill="#FFC40C" d="M170.364,85.211c-0.292-10.532-16.934-10.076-24.095-10.209
						c-6.872-0.127-13.75,0.144-20.619-0.119c-6.124-0.234-12.005-2.136-15.718-7.279c-1.215-1.683-2.141-3.571-2.756-5.551
						c-0.191-0.612-0.344-1.231-0.483-1.857c-0.05-0.226-0.168-1.057-0.115-0.595c-0.159-1.372-2.215-1.919-2.595-0.351
						c-1.954,8.074-2.246,18.964,3.562,25.555c4.879,5.536,12.982,5.353,19.765,5.403c8.879,0.065,17.767-0.663,26.585-1.648
						c5.178-0.578,10.357-1.233,15.5-2.074c0.639-0.105,0.928-0.541,0.952-1.025C170.357,85.381,170.366,85.3,170.364,85.211z"/>
				</g>
				<g id="XMLID_162_">
					<path id="XMLID_164_" fill="#FFC40C" d="M175,74.907c0.292-10.533,16.934-10.076,24.094-10.209
						c6.873-0.127,13.75,0.144,20.62-0.119c6.124-0.234,12.005-2.136,15.718-7.279c1.215-1.683,2.141-3.571,2.757-5.551
						c0.19-0.612,0.345-1.231,0.483-1.857c0.051-0.226,0.168-1.057,0.115-0.595c0.158-1.372,2.215-1.919,2.594-0.351
						c1.955,8.074,2.247,18.964-3.561,25.555c-4.88,5.536-12.982,5.353-19.766,5.403c-8.879,0.065-17.767-0.663-26.585-1.648
						c-5.178-0.578-10.357-1.233-15.5-2.075c-0.639-0.104-0.929-0.541-0.952-1.024C175.006,75.077,174.998,74.996,175,74.907z"/>
					<path id="XMLID_163_" fill="#FFC40C" d="M181.86,85.211c0.292-10.532,16.933-10.076,24.095-10.209
						c6.871-0.127,13.75,0.144,20.619-0.119c6.123-0.234,12.005-2.136,15.718-7.279c1.215-1.683,2.141-3.571,2.757-5.551
						c0.19-0.612,0.344-1.231,0.482-1.857c0.051-0.226,0.169-1.057,0.115-0.595c0.159-1.372,2.215-1.919,2.596-0.351
						c1.953,8.074,2.246,18.964-3.563,25.555c-4.879,5.536-12.982,5.353-19.765,5.403c-8.88,0.065-17.767-0.663-26.585-1.648
						c-5.178-0.578-10.357-1.233-15.5-2.074c-0.639-0.105-0.928-0.541-0.952-1.025C181.866,85.381,181.857,85.3,181.86,85.211z"/>
				</g>
			</g>
			<path id="XMLID_160_" fill="#59A8C6" d="M270.198,139.203c-0.303-26.823-14.687-49.521-34.231-57.368l0,0
				c-10.841-6.252-64.625-22.529-119.71,0l0,0c-19.545,7.848-33.929,30.545-34.231,57.367c-0.387,34.193,21.812,62.062,49.25,62.062
				c4.778,0,9.397-0.846,13.765-2.423c20.295-7.329,41.849-7.329,62.144,0c4.368,1.577,8.986,2.423,13.766,2.423
				C248.387,201.264,270.584,173.395,270.198,139.203z"/>
			<g id="XMLID_150_">
				<g id="XMLID_153_">
					<g id="XMLID_157_">
						<circle id="XMLID_159_" fill="#FFFFFF" cx="137.305" cy="145.246" r="42.631"/>
						<circle id="XMLID_158_" cx="137.304" cy="145.246" r="19.044"/>
					</g>
					<g id="XMLID_154_">
						<circle id="XMLID_156_" fill="#FFFFFF" cx="214.919" cy="145.246" r="42.631"/>
						<circle id="XMLID_155_" cx="214.919" cy="145.246" r="19.044"/>
					</g>
				</g>
				<circle id="XMLID_152_" fill="#FFFFFF" cx="145.107" cy="135.773" r="4.652"/>
				<circle id="XMLID_151_" fill="#FFFFFF" cx="223.222" cy="135.773" r="4.651"/>
			</g>
			<path id="XMLID_149_" fill="#FFBC5A" d="M158.625,162.758c-0.111,0.159-0.216,0.311-0.314,0.455
				c-0.659,0.969-0.771,2.445-0.28,3.598l16.288,38.277c0.815,1.916,2.773,1.916,3.589-0.001l16.287-38.276
				c0.49-1.152,0.379-2.629-0.279-3.598c-0.1-0.145-0.203-0.296-0.314-0.455C183.988,149.008,168.235,149.008,158.625,162.758z"/>
		</g>
	</g>
	<g id="XMLID_54_">
		<g>
			<g id="XMLID_89_">
				<ellipse id="XMLID_92_" fill="#FFFFFF" cx="137.924" cy="276.131" rx="3.393" ry="10.906"/>
				<ellipse id="XMLID_91_" fill="#FFFFFF" cx="151.375" cy="276.131" rx="3.393" ry="10.906"/>
				<ellipse id="XMLID_90_" fill="#FFFFFF" cx="144.65" cy="276.131" rx="5.453" ry="15.512"/>
			</g>
			<g id="XMLID_85_">
				<ellipse id="XMLID_88_" fill="#FFFFFF" cx="200.848" cy="276.131" rx="3.393" ry="10.906"/>
				<ellipse id="XMLID_87_" fill="#FFFFFF" cx="214.3" cy="276.131" rx="3.394" ry="10.906"/>
				<ellipse id="XMLID_86_" fill="#FFFFFF" cx="207.574" cy="276.131" rx="5.453" ry="15.512"/>
			</g>
		</g>
		<g>
			<g id="XMLID_81_">
				<ellipse id="XMLID_84_" fill="#FFC40C" cx="137.924" cy="276.131" rx="3.393" ry="10.906"/>
				<ellipse id="XMLID_83_" fill="#FFC40C" cx="151.375" cy="276.131" rx="3.393" ry="10.906"/>
				<ellipse id="XMLID_82_" fill="#FFC40C" cx="144.65" cy="276.131" rx="5.453" ry="15.512"/>
			</g>
			<g id="XMLID_77_">
				<ellipse id="XMLID_80_" fill="#FFC40C" cx="200.848" cy="276.131" rx="3.393" ry="10.906"/>
				<ellipse id="XMLID_79_" fill="#FFC40C" cx="214.3" cy="276.131" rx="3.394" ry="10.906"/>
				<ellipse id="XMLID_78_" fill="#FFC40C" cx="207.574" cy="276.131" rx="5.453" ry="15.512"/>
			</g>
		</g>
	</g>
</g>
</svg>
